<svg clip-rule="evenodd" fill-rule="evenodd" image-rendering="optimizeQuality" shape-rendering="geometricPrecision" text-rendering="geometricPrecision" viewBox="0 0 254000 254000" xmlns="http://www.w3.org/2000/svg"><g id="&#x56FE;&#x5C42;_x0020_1"><path d="m216747 0h-179494c-20518 0-37253 16735-37253 37253v179494c0 20518 16735 37253 37253 37253h179494c20518 0 37253-16735 37253-37253v-179494c0-20518-16735-37253-37253-37253z" fill="none"/><g id="_228539064" fill="#178feb"><path id="_228539616" d="m186727 114115h-126586c-3730 0-6773 3081-6773 6773v12222c0 3692 3081 6773 6773 6773h126586c3692 0 6773-3043 6773-6773v-12222c0-3730-3043-6773-6773-6773z"/><g><path id="_228539760" d="m125933 84944 54525 54525c2638 2637 6973 2606 9579 0l8642-8642c2605-2606 2605-6973 0-9579l-54525-54525c-2606-2606-6941-2637-9579 0l-8642 8642c-2637 2638-2637 6941 0 9579z"/><path id="_228539856" d="m125933 169055 54525-54525c2638-2637 6973-2606 9579 0l8642 8642c2605 2606 2605 6973 0 9579l-54525 54525c-2606 2606-6941 2637-9579 0l-8642-8642c-2637-2638-2637-6941 0-9579z"/></g></g></g></svg>