<svg id="Layer_1" viewBox="0 0 512 512" xmlns="http://www.w3.org/2000/svg" data-name="Layer 1"><g><circle cx="256" cy="256" fill="#0b77cf" r="240"/><path d="m228.317 494.402c-119.506-13.728-212.317-115.218-212.317-238.402s92.811-224.673 212.317-238.401c119.506 13.728 212.317 115.218 212.317 238.402s-92.811 224.673-212.317 238.402z" fill="#008cff" fill-rule="evenodd"/></g><g fill-rule="evenodd"><path d="m286.495 217.297h-141.878c-21.287 0-38.703 17.416-38.703 38.703s17.416 38.703 38.703 38.703h141.878v36.812c0 15.64 18.508 23.858 30.11 13.368l83.513-75.515c7.957-7.195 7.957-19.54 0-26.735l-83.513-75.515c-11.601-10.49-30.11-2.272-30.11 13.368v36.812z" fill="#d3d9de"/><path d="m286.495 217.297h-141.878c-21.287 0-38.703 17.416-38.703 38.703s17.416 38.703 38.703 38.703h141.878v36.812c0 3.454.903 6.545 2.435 9.153 3.054 4.888 4.255 3.295 8.848-.859l77.902-70.441c7.957-7.195 7.957-19.54 0-26.735l-79.231-71.643c-3.488-3.157-4.339-4.571-7.306-.011-1.661 2.68-2.649 5.896-2.649 9.507v36.812z" fill="#fff"/></g></svg>