<svg id="Layer_1" viewBox="0 0 512 512" xmlns="http://www.w3.org/2000/svg" data-name="Layer 1"><g><circle cx="256" cy="256" fill="#076646" r="240" transform="matrix(.707 -.707 .707 .707 -106.039 256)"/><path d="m228.317 494.402c-119.506-13.728-212.317-115.218-212.317-238.402s92.811-224.674 212.317-238.402c119.506 13.728 212.317 115.218 212.317 238.402s-92.811 224.673-212.317 238.402z" fill="#0e9669" fill-rule="evenodd"/></g><g fill-rule="evenodd"><path d="m360.44 230.923-46.76 80.991c-9.414 16.306-25.155 25.532-43.24 15.091l-68.102-39.318-39.392 68.229c-8.222 14.24-26.603 19.167-40.845 10.944-14.243-8.223-19.167-26.604-10.945-40.846 17.851-30.919 35.703-61.839 53.554-92.758 8.899-15.413 25.938-20.59 41.635-12.311l68.102 39.319 34.203-59.242-25.688-14.831c-9.614-5.55-7.721-19.934 3.002-22.807l81.365-21.801c6.623-1.774 13.473 2.18 15.247 8.803l21.802 81.365c2.873 10.723-8.637 19.554-18.251 14.004l-25.688-14.831z" fill="#d3d9de"/><path d="m350.552 225.248-50.071 86.666c-5.366 9.294-12.788 16.285-21.527 18.648-2.766-.715-5.609-1.881-8.512-3.558l-78.101-44.971-42.593 73.882c-4.332 7.504-11.485 12.419-19.367 14.19-2.841-.644-5.632-1.717-8.279-3.246-14.243-8.223-19.167-26.604-10.945-40.846 17.851-30.919 35.703-61.839 53.554-92.758 4.783-8.284 11.918-13.609 19.932-15.48 2.841.638 5.693 1.687 8.503 3.169l78.151 45.046 3.151-5.727 34.203-59.242-25.688-14.831c-9.614-5.55-7.721-19.934 3.002-22.807l77.309-20.715c2.904 1.574 5.184 4.287 6.103 7.716l21.802 81.365c1.559 5.818-1.117 11.078-5.426 13.787l-35.201-20.289z" fill="#fff"/></g></svg>